<?xml version="1.0" encoding="iso-8859-1"?>
<!-- Generator: Adobe Illustrator 19.0.0, SVG Export Plug-In . SVG Version: 6.00 Build 0)  -->
<svg version="1.1" id="Layer_1" xmlns="http://www.w3.org/2000/svg" xmlns:xlink="http://www.w3.org/1999/xlink" x="0px" y="0px"
	 viewBox="0 0 512.001 512.001" style="enable-background:new 0 0 512.001 512.001;" xml:space="preserve">
<g>
	<g>
		<path d="M457.971,201.856h-2.982V152.92c0-23.706-15.186-43.923-36.34-51.457l-17.197-52.898c-0.746-2.293-2.387-4.188-4.55-5.252
			c-2.164-1.066-4.666-1.212-6.938-0.401l-25.174,8.952l-8.836-27.169c-0.746-2.293-2.387-4.186-4.55-5.251
			c-2.162-1.065-4.665-1.21-6.935-0.403L220.71,63.036C208.935,26.508,174.629,0,134.236,0C84.144,0,43.39,40.752,43.39,90.844
			c0,2.484,0.129,4.976,0.332,7.466H32.215c-4.934,0-8.932,3.999-8.932,8.932v313.948c0,4.933,3.998,8.932,8.932,8.932h24.14
			l192.471,81.175c1.127,0.475,2.305,0.703,3.467,0.703c2.966,0,5.835-1.482,7.52-4.109l26.843-41.824l74.453,16.388
			c0.646,0.142,1.29,0.211,1.926,0.211c3.877,0,7.415-2.537,8.56-6.397l13.673-46.146h15.111c30.113,0,54.612-24.499,54.612-54.611
			v-48.936h2.982c16.954,0,30.747-13.793,30.747-30.747v-63.226C488.717,215.648,474.924,201.856,457.971,201.856z M387.299,62.82
			l11.538,35.489h-18.943l-9.578-29.451L387.299,62.82z M341.805,38.949l19.304,59.362H224.748c0.204-2.488,0.331-4.981,0.331-7.466
			c0-3.447-0.211-6.843-0.587-10.193L341.805,38.949z M134.236,17.865c40.24,0,72.978,32.738,72.978,72.979
			c0,2.484-0.13,4.978-0.382,7.466h-21.299c0.354-2.457,0.535-4.949,0.535-7.466c0-28.581-23.252-51.834-51.833-51.834
			S82.4,62.263,82.4,90.844c0,2.518,0.181,5.009,0.535,7.466H61.637c-0.251-2.489-0.382-4.984-0.382-7.466
			C61.255,50.603,93.994,17.865,134.236,17.865z M168.203,90.843c0,2.539-0.285,5.034-0.829,7.466h-66.28
			c-0.544-2.432-0.829-4.926-0.829-7.466c0-18.731,15.239-33.97,33.97-33.97S168.203,72.112,168.203,90.843z M248.839,491.914
			l-146.513-61.791h21.026l144.705,31.851L248.839,491.914z M356.827,463.22l-150.368-33.098h160.173L356.827,463.22z
			 M437.125,375.512h-0.001c0,20.261-16.485,36.746-36.747,36.746H41.148V116.174h359.23c20.262,0,36.747,16.485,36.747,36.746
			v48.936H326.43c-16.954,0-30.747,13.793-30.747,30.747v63.226c0,16.954,13.793,30.747,30.747,30.747h110.695V375.512z
			 M470.852,295.83c0,7.103-5.78,12.882-12.882,12.882H326.429c-7.103,0-12.882-5.779-12.882-12.882v-63.226
			c0-7.103,5.78-12.882,12.882-12.882H457.97c7.103,0,12.882,5.779,12.882,12.882V295.83z"/>
	</g>
</g>
<g>
	<g>
		<path d="M364.974,232.581c-17.443,0-31.636,14.192-31.636,31.635s14.192,31.635,31.636,31.635s31.636-14.192,31.636-31.635
			S382.419,232.581,364.974,232.581z M364.974,277.986c-7.594,0-13.771-6.178-13.771-13.77s6.178-13.77,13.771-13.77
			s13.771,6.178,13.771,13.77S372.568,277.986,364.974,277.986z"/>
	</g>
</g>
<g>
</g>
<g>
</g>
<g>
</g>
<g>
</g>
<g>
</g>
<g>
</g>
<g>
</g>
<g>
</g>
<g>
</g>
<g>
</g>
<g>
</g>
<g>
</g>
<g>
</g>
<g>
</g>
<g>
</g>
</svg>
