<svg height="512" viewBox="0 0 16 16" width="512" xmlns="http://www.w3.org/2000/svg"><path d="" fill="none" stroke="#000" stroke-linejoin="round" stroke-width="2"/><path d="m16 2s-1.50708.399963-2 .399963c-.50708 0-2-.399963-2-.399963s.208313.784058.324097 1.40778c-.807556-.221619-1.21619-.841858-1.66687-1.54645-.558105-.872559-1.19043-1.86133-2.65723-1.86133-1.91998 0-2.36414 1.7735-2.46747 3.04565-.581177.0459595-1.15924.152283-1.71466.369385-.191895.0751953-.317871.259766-.317871.46582v.619141h.109131c-2.1214.925842-3.60913 3.04126-3.60913 5.5 0 3.30859 2.69141 6 6 6s6-2.69141 6-6c0-2.45874-1.48773-4.57416-3.60913-5.5h.109131v-.619141c0-.206055-.125977-.390625-.317871-.46582-.531067-.207581-1.08313-.311096-1.63837-.362183.129089-1.4198.581604-2.05286 1.45624-2.05286.876465 0 1.24268.505859 1.81494 1.3999.522095.81665 1.15656 1.80701 2.53455 2.04578-.106445.63916-.349487 1.55432-.349487 1.55432s1.47882-.400024 2-.400024c.478821 0 2 .400024 2 .400024s-.400024-1.5-.400024-2 .400024-2 .400024-2z"/></svg>